<svg width="189" height="189" viewBox="0 0 189 189" fill="none" xmlns="http://www.w3.org/2000/svg">
<path d="M157.582 149.543C120.422 178.155 68.5908 177.926 31.6853 148.987L58.7345 136.307C60.0227 135.702 61.2591 134.992 62.4312 134.184C62.7869 133.939 63.1427 133.684 63.4818 133.417C66.4257 131.164 68.8489 128.303 70.586 125.029C71.8992 122.513 72.7716 119.79 73.1652 116.979C73.4367 115.156 73.5742 113.314 73.5766 111.471C73.5766 108.291 73.4043 105.111 73.3709 101.926C73.3487 100.162 73.3302 98.3999 73.3153 96.6396L74.4271 97.1955L77.3177 98.6909L78.6574 98.9188L94.1554 101.554L111.454 104.5L111.977 122.288L112.149 128.103L112.233 130.926V131.11L118.959 133.845L157.582 149.543Z" fill="#DE8276"/>
<path d="M112.121 130.004C110.211 130.332 108.245 130.028 106.524 129.137L73.3542 102.021C73.3153 100.764 73.282 102.082 73.2653 100.826C73.2431 99.0615 73.2245 97.2994 73.2097 95.5391L74.3215 96.0949L77.2121 97.5903L78.5517 97.8182L94.0497 100.453L111.349 103.399L111.871 121.187L112.044 127.002L112.127 129.826V130.009L112.121 130.004Z" fill="#A76962"/>
<path d="M129.243 81.6699C128.378 82.5738 127.431 83.3945 126.413 84.1213C120.632 88.3071 112.916 89.6801 106.324 91.937C103.544 92.8876 73.4043 101.454 73.4043 103.316C73.4043 102.91 70.4525 99.9806 66.7337 96.423C53.9071 84.1382 49.6309 65.3938 55.8606 48.7616C61.9253 32.8245 81.2589 21.8402 97.4517 19.2998C105.162 18.0936 114.312 17.421 121.433 21.1176C125.074 23.0131 128.103 25.7759 130.883 28.8388C131.75 29.806 132.591 30.7936 133.406 31.8016C133.756 32.2241 134.101 32.6466 134.44 33.0746C147.098 48.9728 142.612 67.6227 129.243 81.6699Z" fill="url(#paint0_linear_326_618)"/>
<path d="M129.243 81.6698C128.378 82.5737 127.431 83.3945 126.413 84.1212C126.176 83.7076 125.962 83.2807 125.774 82.8427C124.307 79.5074 123.551 75.8886 122.995 72.2809C122.129 67.0307 121.537 61.7389 121.221 56.4272C120.716 47.8999 117.074 43.6697 124.318 37.0213C126.924 34.6324 130.028 32.8516 133.406 31.8071C133.757 32.2296 134.101 32.6521 134.44 33.0801C147.098 48.9728 142.612 67.6226 129.243 81.6698Z" fill="url(#paint1_linear_326_618)"/>
<circle cx="67.8455" cy="81.0862" r="9.45" fill="#E18477"/>
<ellipse cx="70.8472" cy="81.0863" rx="8.46053" ry="8.46053" fill="#A76962"/>
<path d="M71.5531 72.1253C72.0145 78.1622 71.9978 85.5332 72.1591 87.6901C72.5778 93.0969 72.9929 98.502 73.4042 103.905L110.337 125.479C115.638 127.46 121.576 125.09 124.056 120.003C129.37 109.119 137.898 91.9314 136.775 85.5388C135.107 76.0888 130.66 72.7535 130.66 72.7535L132.511 61.6692C134.385 50.4015 130.521 39.7341 117.358 38.5C114.578 38.2443 111.482 38.7724 109.831 40.9904C105.384 46.9717 107.947 54.3316 101.271 59.8904C93.1658 66.5776 75.083 69.496 70.8472 64.0984C70.8472 64.0984 71.2363 67.9173 71.5531 72.1253Z" fill="#DE8276"/>
<path d="M99.2695 95.7058C101.94 98.6885 105.602 100.602 109.576 101.092" stroke="#00214E"/>
<path d="M112.399 69.4626C112.355 69.6572 119.826 89.5467 119.826 89.5467L109.854 90.0303" stroke="#00214E"/>
<path d="M88.7856 65.6049C93.9315 64.5406 99.2246 64.3901 104.423 65.1602" stroke="#00214E"/>
<path d="M121.61 65.677C124.787 64.9368 128.062 64.7097 131.311 65.0044" stroke="#00214E"/>
<path d="M157.582 149.543C120.422 178.155 68.5908 177.926 31.6853 148.987L58.7345 136.308C60.0227 135.702 61.2591 134.992 62.4312 134.184C62.7869 133.939 63.1427 133.684 63.4818 133.417C66.4257 131.164 68.8489 128.303 70.586 125.029C71.8992 122.513 72.7716 119.79 73.1652 116.979C73.5578 117.36 73.9697 117.72 74.3993 118.058C77.8077 120.578 81.5068 122.68 85.4169 124.317C87.3152 125.109 89.2564 125.794 91.2314 126.368C97.1816 128.103 103.394 128.76 109.576 128.308C110.432 128.242 111.293 128.158 112.149 128.097L112.233 130.921V131.104L118.959 133.839L157.582 149.543Z" fill="#00214E"/>
<path d="M96.3622 71.853C99.753 71.853 99.753 77.0672 96.3622 77.095H96.2065C92.8101 77.095 92.8101 71.8808 96.2065 71.853H96.3566H96.3622Z" fill="#00214E"/>
<path d="M124.229 71.0803C127.375 71.1081 127.375 75.9165 124.229 75.9443H124.084C120.938 75.9443 120.938 71.1081 124.084 71.0803H124.229Z" fill="#00214E"/>
<defs>
<linearGradient id="paint0_linear_326_618" x1="53.0034" y1="103.338" x2="141.933" y2="103.338" gradientUnits="userSpaceOnUse">
<stop stop-color="#16243F"/>
<stop offset="1" stop-color="#6878B1"/>
</linearGradient>
<linearGradient id="paint1_linear_326_618" x1="105.379" y1="66.197" x2="142.666" y2="76.7756" gradientUnits="userSpaceOnUse">
<stop stop-color="#16243F"/>
<stop offset="1" stop-color="#6878B1"/>
</linearGradient>
</defs>
</svg>
