<svg width="41" height="41" viewBox="0 0 41 41" fill="none" xmlns="http://www.w3.org/2000/svg">
<path d="M20.4998 10.7084C19.4228 10.7084 18.5415 11.5897 18.5415 12.6667V18.5417H12.6665C11.5894 18.5417 10.7082 19.423 10.7082 20.5001C10.7082 21.5772 11.5894 22.4584 12.6665 22.4584H18.5415V28.3334C18.5415 29.4105 19.4228 30.2917 20.4998 30.2917C21.5769 30.2917 22.4582 29.4105 22.4582 28.3334V22.4584H28.3332C29.4103 22.4584 30.2915 21.5772 30.2915 20.5001C30.2915 19.423 29.4103 18.5417 28.3332 18.5417H22.4582V12.6667C22.4582 11.5897 21.5769 10.7084 20.4998 10.7084ZM20.4998 0.916748C9.68984 0.916748 0.916504 9.69008 0.916504 20.5001C0.916504 31.3101 9.68984 40.0834 20.4998 40.0834C31.3098 40.0834 40.0832 31.3101 40.0832 20.5001C40.0832 9.69008 31.3098 0.916748 20.4998 0.916748ZM20.4998 36.1667C11.8636 36.1667 4.83317 29.1363 4.83317 20.5001C4.83317 11.8638 11.8636 4.83341 20.4998 4.83341C29.1361 4.83341 36.1665 11.8638 36.1665 20.5001C36.1665 29.1363 29.1361 36.1667 20.4998 36.1667Z" fill="#61C87E"/>
</svg>
