<svg width="24" height="24" viewBox="0 0 24 24" fill="none" xmlns="http://www.w3.org/2000/svg">
<path d="M6 22C5.45 22 4.979 21.804 4.587 21.412C4.195 21.02 3.99934 20.5493 4 20V4C4 3.45 4.196 2.979 4.588 2.587C4.98 2.195 5.45067 1.99934 6 2H14L20 8V12H18V9H13V4H6V20H12V22H6ZM18.3 14.525L19.375 15.6L15.5 19.45V20.5H16.55L20.425 16.65L21.475 17.7L17.175 22H14V18.825L18.3 14.525ZM21.475 17.7L18.3 14.525L19.75 13.075C19.9333 12.8917 20.1667 12.8 20.45 12.8C20.7333 12.8 20.9667 12.8917 21.15 13.075L22.925 14.85C23.1083 15.0333 23.2 15.2667 23.2 15.55C23.2 15.8333 23.1083 16.0667 22.925 16.25L21.475 17.7Z" fill="black"/>
</svg>
