<svg width="49" height="49" viewBox="0 0 49 49" fill="none" xmlns="http://www.w3.org/2000/svg">
<path d="M24.5818 4.08313C13.4343 4.08313 4.34888 13.1685 4.34888 24.316C4.34888 27.889 5.28805 31.3598 7.04388 34.4223L4.18555 44.9165L14.9043 42.099C17.8647 43.7119 21.1926 44.5694 24.5818 44.5694C35.7293 44.5694 44.8147 35.484 44.8147 24.3365C44.8147 18.926 42.7118 13.8423 38.8939 10.0244C37.0221 8.13364 34.7925 6.63453 32.3353 5.61448C29.8781 4.59443 27.2423 4.07386 24.5818 4.08313ZM24.6022 7.49271C29.0939 7.49271 33.2997 9.24855 36.4847 12.4335C38.0478 13.9961 39.2871 15.8519 40.1315 17.8945C40.9758 19.9371 41.4086 22.1263 41.4051 24.3365C41.4051 33.6056 33.851 41.1394 24.5818 41.1394C21.5601 41.1394 18.5997 40.3431 16.0272 38.7915L15.4147 38.4444L9.04471 40.1185L10.7393 33.9119L10.331 33.2585C8.64443 30.5812 7.75236 27.4803 7.75846 24.316C7.77888 15.0469 15.3126 7.49271 24.6022 7.49271ZM17.4155 14.9652C17.0889 14.9652 16.5376 15.0877 16.068 15.5981C15.6189 16.1085 14.2918 17.354 14.2918 19.8244C14.2918 22.3152 16.1089 24.704 16.3335 25.051C16.6193 25.3981 19.9268 30.5023 25.0105 32.6665C26.2151 33.2177 27.1543 33.524 27.8893 33.7485C29.0939 34.1365 30.1964 34.0752 31.0743 33.9527C32.0543 33.8098 34.0551 32.7277 34.4839 31.5435C34.9126 30.3594 34.9126 29.359 34.7901 29.1344C34.6472 28.9302 34.3205 28.8077 33.8101 28.5831C33.2997 28.2973 30.8089 27.0723 30.3597 26.909C29.8901 26.7456 29.6043 26.664 29.2164 27.154C28.8897 27.6644 27.9097 28.8077 27.6239 29.1344C27.3176 29.4815 27.0318 29.5223 26.5418 29.2773C26.011 29.0119 24.3776 28.481 22.4585 26.766C20.9476 25.4185 19.9472 23.7648 19.641 23.2544C19.396 22.7644 19.6205 22.4581 19.8655 22.2335C20.0901 22.009 20.4168 21.6415 20.621 21.3352C20.8864 21.0494 20.968 20.8248 21.1314 20.4981C21.2947 20.151 21.213 19.8652 21.0905 19.6202C20.968 19.3956 19.9472 16.864 19.5185 15.8635C19.1101 14.8835 18.7018 15.006 18.3751 14.9856C18.0893 14.9856 17.7626 14.9652 17.4155 14.9652Z" fill="#4EB847"/>
</svg>
