<svg width="25" height="24" viewBox="0 0 25 24" fill="none" xmlns="http://www.w3.org/2000/svg">
<path d="M6.89346 1.99292C6.94772 1.83533 7.00848 1.67117 7.07573 1.50043C7.14361 1.32991 7.21256 1.16856 7.28258 1.0164L12.8139 2.92098L12.1315 7.97414L8.44539 9.77199C8.7579 11.2193 9.23822 12.6143 9.88635 13.9571C10.5347 15.2993 11.3122 16.4967 12.219 17.5493L15.8652 15.7905L20.3153 18.3011L18.4107 23.8324C18.2423 23.8097 18.0714 23.7684 17.898 23.7088L17.4016 23.5378C15.3688 22.8379 13.5433 21.7024 11.9253 20.1313C10.3065 18.5607 9.00493 16.7729 8.02074 14.7679C7.03633 12.7636 6.4273 10.6417 6.19365 8.40227C5.96022 6.16224 6.19349 4.02579 6.89346 1.99292Z" fill="#94918A"/>
</svg>
