<svg width="20" height="22" viewBox="0 0 20 22" fill="none" xmlns="http://www.w3.org/2000/svg">
<path d="M5.59989 10.2667H4.86655V11.7333H5.59989V10.2667ZM14.3999 11.7333H15.1332V10.2667H14.3999V11.7333ZM5.59989 5.86667H4.86655V7.33333H5.59989V5.86667ZM8.53322 7.33333H9.26655V5.86667H8.53322V7.33333ZM14.3999 0.733333L14.9191 0.214133L14.7035 0H14.3999V0.733333ZM18.7999 5.13333H19.5332V4.82973L19.3191 4.61413L18.7999 5.13333ZM9.99989 16.8667L10.3284 17.5223L10.3871 17.4929L10.4399 17.4533L9.99989 16.8667ZM5.59989 11.7333H14.3999V10.2667H5.59989V11.7333ZM5.59989 7.33333H8.53322V5.86667H5.59989V7.33333ZM17.3332 20.5333H2.66655V22H17.3332V20.5333ZM1.93322 19.8V2.2H0.466553V19.8H1.93322ZM2.66655 1.46667H14.3999V0H2.66655V1.46667ZM18.0666 5.13333V19.8H19.5332V5.13333H18.0666ZM13.8807 1.25253L18.2807 5.65253L19.3191 4.61413L14.9191 0.214133L13.8807 1.25253ZM2.66655 20.5333C2.47206 20.5333 2.28553 20.4561 2.14801 20.3185C2.01048 20.181 1.93322 19.9945 1.93322 19.8H0.466553C0.466553 20.3835 0.698338 20.9431 1.11092 21.3556C1.5235 21.7682 2.08308 22 2.66655 22V20.5333ZM17.3332 22C17.9167 22 18.4763 21.7682 18.8889 21.3556C19.3014 20.9431 19.5332 20.3835 19.5332 19.8H18.0666C18.0666 19.9945 17.9893 20.181 17.8518 20.3185C17.7142 20.4561 17.5277 20.5333 17.3332 20.5333V22ZM1.93322 2.2C1.93322 2.00551 2.01048 1.81898 2.14801 1.68146C2.28553 1.54393 2.47206 1.46667 2.66655 1.46667V0C2.08308 0 1.5235 0.231785 1.11092 0.644365C0.698338 1.05695 0.466553 1.61652 0.466553 2.2H1.93322ZM7.02842 17.0984C7.19122 16.61 7.65469 16.1568 8.24575 15.9984C8.79869 15.8503 9.51002 15.9471 10.214 16.6525L11.2524 15.6141C10.1964 14.5581 8.95122 14.2897 7.86589 14.5816C6.82015 14.8632 5.96362 15.6567 5.63655 16.6349L7.02842 17.0984ZM10.214 16.6525C10.2553 16.6926 10.294 16.7352 10.3299 16.7801L11.4886 15.8796C11.4154 15.7868 11.3365 15.6986 11.2524 15.6156L10.214 16.6525ZM10.3299 16.7801C10.4443 16.9268 10.4179 16.9737 10.4223 16.9415C10.4252 16.9209 10.4311 16.9547 10.3431 17.0339C10.2163 17.1399 10.0725 17.2237 9.91775 17.2817C9.73184 17.3565 9.53795 17.4097 9.33989 17.4401C9.21906 17.4631 9.09549 17.4681 8.97322 17.4548C8.94829 17.4489 8.99962 17.4548 9.07589 17.5091C9.16941 17.5812 9.23816 17.6807 9.27259 17.7937C9.30701 17.9068 9.30542 18.0277 9.26802 18.1397C9.25971 18.164 9.24837 18.1872 9.23429 18.2087C9.23135 18.2116 9.25629 18.1793 9.33989 18.1104C9.50709 17.9755 9.81509 17.7789 10.3284 17.5237L9.67135 16.2111C9.11842 16.4868 8.70335 16.7391 8.41882 16.9693C8.27453 17.082 8.14624 17.2137 8.03749 17.3609C7.89917 17.5461 7.82688 17.7723 7.83215 18.0033C7.83849 18.1386 7.87544 18.2706 7.94022 18.3895C8.00501 18.5084 8.09594 18.6111 8.20615 18.6897C8.37189 18.8129 8.55522 18.8657 8.69015 18.8936C8.96442 18.9479 9.27682 18.9332 9.55989 18.8907C10.1172 18.8056 10.8388 18.5651 11.3302 18.1192C11.5854 17.886 11.8274 17.5516 11.8787 17.1131C11.9315 16.6643 11.7702 16.2433 11.4871 15.8811L10.3299 16.7801ZM10.4399 17.4533C10.6745 17.2739 10.9295 17.1227 11.1996 17.0031L10.6174 15.6567C10.2654 15.8092 9.91335 16.016 9.55989 16.28L10.4399 17.4533ZM11.1996 17.0031C12.153 16.5909 13.0051 16.808 13.8778 17.2231C14.0978 17.3287 14.3119 17.4431 14.529 17.5604C14.7402 17.6748 14.9631 17.7965 15.1743 17.9051C15.5791 18.1089 16.0807 18.3333 16.5999 18.3333V16.8667C16.462 16.8667 16.2362 16.7977 15.8372 16.5968C15.6495 16.5 15.453 16.3915 15.2271 16.2697C15.0071 16.1509 14.7636 16.0204 14.5084 15.9001C13.4847 15.4117 12.1456 14.9967 10.6174 15.6567L11.1996 17.0031Z" fill="white"/>
</svg>
